/vscmnt/brussel_pixiu_data/_data_brussel/112/vsc11236/PredSimResults/SUBJ09opt3D/expIG/worker_10.mot
version=1
nRows=8
nColumns=50
inDegrees=yes
endheader
                time	         pelvis_tilt	         pelvis_list	     pelvis_rotation	           pelvis_tx	           pelvis_ty	           pelvis_tz	       hip_flexion_r	     hip_adduction_r	      hip_rotation_r	        knee_angle_r	       ankle_angle_r	         mtp_angle_r	       hip_flexion_l	     hip_adduction_l	      hip_rotation_l	        knee_angle_l	       ankle_angle_l	         mtp_angle_l	    lumbar_extension	      lumbar_bending	     lumbar_rotation	 ercspn_r/activation	 intobl_r/activation	 extobl_r/activation	    abd_r/activation	    add_r/activation	hamstrings_r/activation	bifemsh_r/activation	glut_max_r/activation	iliopsoas_r/activation	rect_fem_r/activation	  vasti_r/activation	gastroc_r/activation	 soleus_r/activation	tib_ant_r/activation	 ercspn_l/activation	 intobl_l/activation	 extobl_l/activation	    abd_l/activation	    add_l/activation	hamstrings_l/activation	bifemsh_l/activation	glut_max_l/activation	iliopsoas_l/activation	rect_fem_l/activation	  vasti_l/activation	gastroc_l/activation	 soleus_l/activation	tib_ant_l/activation	
          0.56912169	         -5.51353143	          2.38267075	         -9.47259446	          0.85368254	          0.97908450	          0.00342196	        -15.41683801	         -3.94674311	         -2.36404435	         -9.75553572	          1.48135461	         40.60693328	         32.34705687	         -0.94496341	         -8.92301299	         -6.97809152	          5.98740318	          0.24517887	        -12.68165786	         -1.01462504	          6.93248692	          0.03061509	          0.01000000	          0.01000001	          0.02383417	          0.01000010	          0.02926548	          0.23254206	          0.01415398	          0.01753547	          0.01000000	          0.01000000	          0.33089457	          0.19383615	          0.01415402	          0.05353450	          0.14190736	          0.01958931	          0.01347953	          0.22520970	          0.08099646	          0.17995523	          0.06827342	          0.13737186	          0.01000000	          0.01000000	          0.02042423	          0.01000000	          0.37864967	
          0.58050413	         -5.49350067	          2.52930392	         -9.45354424	          0.87564868	          0.97657932	          0.00286131	        -15.93018742	         -4.32734950	         -2.87549870	        -10.97301176	          0.04268194	         42.34383183	         32.31799353	         -0.70530927	         -9.10331872	         -8.97927953	          5.39564887	          0.22755145	        -12.15597950	         -1.41925507	          7.13200718	          0.06949333	          0.01000001	          0.01000001	          0.02003364	          0.08413142	          0.02459890	          0.19546159	          0.01189703	          0.11714812	          0.01000000	          0.01000000	          0.27813109	          0.16292761	          0.01189706	          0.04499805	          0.11927923	          0.01646565	          0.05429625	          0.26072334	          0.07562414	          0.15126010	          0.23032824	          0.11546695	          0.01000000	          0.01000001	          0.01716746	          0.01462891	          0.39699248	
          0.59188656	         -5.45504281	          2.67536931	         -9.39456962	          0.89777631	          0.97424953	          0.00223107	        -16.16388412	         -4.72137920	         -3.40862369	        -12.74314126	         -1.39336298	         43.78838292	         32.18939304	         -0.47225582	         -9.20479295	        -11.04106277	          4.95296371	          0.20978830	        -11.62991645	         -1.82308531	          7.29449236	          0.05841223	          0.00999999	          0.01000000	          0.01683914	          0.07071608	          0.02067644	          0.16429387	          0.00999999	          0.24327362	          0.01000000	          0.01000000	          0.23378112	          0.13694765	          0.00999999	          0.03782281	          0.10025931	          0.01384009	          0.17235483	          0.28057154	          0.06578479	          0.12714061	          0.26970590	          0.09705493	          0.01000000	          0.00999999	          0.01442999	          0.01229622	          0.46669232	
          0.60326900	         -5.40282720	          2.81017631	         -9.29703795	          0.91960632	          0.97239131	          0.00149324	        -15.96248276	         -5.13026182	         -3.94889797	        -15.28023353	         -2.79236778	         44.71055686	         32.09715740	         -0.23417732	         -9.25502915	        -13.11445660	          4.29767474	          0.17909087	        -11.15884720	         -2.21489011	          7.41812237	          0.10301155	          0.01000000	          0.01000000	          0.01415402	          0.10210672	          0.01737944	          0.13809605	          0.00999999	          0.26650780	          0.01000000	          0.00999999	          0.19650307	          0.11511038	          0.00999999	          0.06176109	          0.08427225	          0.01163319	          0.21780857	          0.33031846	          0.05529497	          0.10686714	          0.30745941	          0.08157883	          0.01000000	          0.08023719	          0.01212903	          0.01033551	          0.50370645	
          0.61465143	         -5.33875748	          2.93331705	         -9.16604071	          0.94092201	          0.97119564	          0.00066331	        -15.25125229	         -5.56850071	         -4.50240297	        -18.68893925	         -4.10095470	         44.73859756	         32.07061018	          0.00666738	         -9.24867385	        -15.31620012	          3.91554596	          0.12518116	        -10.76476884	         -2.59659828	          7.50175431	          0.13926014	          0.00999999	          0.01000000	          0.01189706	          0.16316440	          0.01460816	          0.11607567	          0.00999999	          0.22401126	          0.01000000	          0.00999999	          0.16516927	          0.09675522	          0.00999999	          0.05191291	          0.07083445	          0.00999999	          0.24869231	          0.30803712	          0.04919941	          0.08982642	          0.31849368	          0.06857051	          0.01000000	          0.25235809	          0.01019497	          0.01000001	          0.52318465	
          0.62603386	         -5.26873633	          3.03540361	         -8.99671555	          0.96160132	          0.97087512	         -0.00022793	        -14.01781286	         -6.03524834	         -5.07121122	        -22.89164746	         -5.58392057	         43.89643652	         31.97213579	          0.25773520	         -9.20311576	        -17.40766676	          3.94515765	          0.07581736	        -10.45731597	         -2.95881969	          7.53799949	          0.13688894	          0.00999999	          0.01000000	          0.00999999	          0.20867726	          0.01227879	          0.09756659	          0.00999999	          0.18829108	          0.01000000	          0.00999999	          0.13883186	          0.08132691	          0.01000000	          0.04363503	          0.05953939	          0.00999999	          0.27121948	          0.29852476	          0.04927312	          0.07550297	          0.30016160	          0.05763646	          0.01000000	          0.33005883	          0.01000000	          0.01000000	          0.50536458	
          0.63741630	         -5.19772608	          3.10102796	         -8.78513375	          0.98157019	          0.97149598	         -0.00113935	        -12.30341712	         -6.52143597	         -5.63948853	        -27.72548155	         -7.35186790	         41.99368914	         31.71467977	          0.51632173	         -9.10496350	        -19.21696958	          4.34559320	          0.04569823	        -10.24168768	         -3.28726934	          7.52128081	          0.13101747	          0.01000001	          0.01000000	          0.00999999	          0.22868154	          0.01415402	          0.08200891	          0.00999999	          0.15826674	          0.00999999	          0.00999999	          0.11669414	          0.06835876	          0.04882065	          0.03667712	          0.05004542	          0.01000000	          0.29604368	          0.30166891	          0.05326573	          0.06346349	          0.25229872	          0.04844592	          0.01000000	          0.35374135	          0.01000002	          0.01000001	          0.44755363	
          0.64879873	         -5.12835244	          3.12680589	         -8.53715835	          1.00079009	          0.97294849	         -0.00202078	        -10.19235859	         -7.01546984	         -6.12276702	        -33.02401712	         -9.08250003	         38.49417148	         31.27892244	          0.77822209	         -8.93852867	        -20.68371659	          5.01734793	          0.04744826	        -10.11653490	         -3.58105732	          7.45214609	          0.16365881	          0.05978069	          0.03291542	          0.01000000	          0.19221665	          0.01189707	          0.06893201	          0.01000000	          0.13302999	          0.01000002	          0.00999999	          0.09808643	          0.05745847	          0.19479930	          0.03082870	          0.04206532	          0.01000000	          0.28538686	          0.25405898	          0.05946072	          0.05334379	          0.21206791	          0.04072087	          0.01000000	          0.39513430	          0.01000001	          0.01000000	          0.38452663	
